{
  "accessors": [
    {
      "bufferView": 1,
      "componentType": 5126,
      "count": 65532,
      "max": [
        157.03500366210938,
        260.4700012207031,
        -117.26300048828125
      ],
      "min": [
        -139.9530029296875,
        59.60169982910156,
        -741.6099853515625
      ],
      "type": "VEC3"
    },
    {
      "bufferView": 1,
      "byteOffset": 786384,
      "componentType": 5126,
      "count": 65532,
      "max": [
        0.9999971985816956,
        1.0,
        1.0
      ],
      "min": [
        -0.9999932646751404,
        -1.0,
        -1.0
      ],
      "type": "VEC3"
    },
    {
      "bufferView": 0,
      "componentType": 5125,
      "count": 311253,
      "type": "SCALAR"
    },
    {
      "bufferView": 1,
      "byteOffset": 1572768,
      "componentType": 5126,
      "count": 65532,
      "max": [
        150.54200744628906,
        265.7909851074219,
        -454.031005859375
      ],
      "min": [
        -127.76100158691406,
        98.00959777832031,
        -782.8909912109375
      ],
      "type": "VEC3"
    },
    {
      "bufferView": 1,
      "byteOffset": 2359152,
      "componentType": 5126,
      "count": 65532,
      "max": [
        0.9999997019767761,
        1.0,
        1.0
      ],
      "min": [
        -0.9999998211860657,
        -1.0,
        -1.0
      ],
      "type": "VEC3"
    },
    {
      "bufferView": 0,
      "byteOffset": 1245012,
      "componentType": 5125,
      "count": 268725,
      "type": "SCALAR"
    },
    {
      "bufferView": 1,
      "byteOffset": 3145536,
      "componentType": 5126,
      "count": 65532,
      "max": [
        156.94900512695313,
        263.3290100097656,
        -223.54100036621094
      ],
      "min": [
        -139.21499633789063,
        56.20819854736328,
        -657.8920288085938
      ],
      "type": "VEC3"
    },
    {
      "bufferView": 1,
      "byteOffset": 3931920,
      "componentType": 5126,
      "count": 65532,
      "max": [
        1.0,
        1.0,
        1.0
      ],
      "min": [
        -1.0,
        -1.0,
        -1.0
      ],
      "type": "VEC3"
    },
    {
      "bufferView": 0,
      "byteOffset": 2319912,
      "componentType": 5125,
      "count": 227832,
      "type": "SCALAR"
    },
    {
      "bufferView": 1,
      "byteOffset": 4718304,
      "componentType": 5126,
      "count": 19768,
      "max": [
        141.39300537109375,
        260.34600830078125,
        -208.67300415039063
      ],
      "min": [
        -121.55000305175781,
        67.88159942626953,
        -297.68499755859375
      ],
      "type": "VEC3"
    },
    {
      "bufferView": 1,
      "byteOffset": 4955520,
      "componentType": 5126,
      "count": 19768,
      "max": [
        0.9999997615814209,
        1.0,
        0.9999721646308899
      ],
      "min": [
        -0.9999998211860657,
        -1.0,
        -0.9999885559082031
      ],
      "type": "VEC3"
    },
    {
      "bufferView": 0,
      "byteOffset": 3231240,
      "componentType": 5125,
      "count": 57984,
      "type": "SCALAR"
    },
    {
      "bufferView": 1,
      "byteOffset": 5192736,
      "componentType": 5126,
      "count": 16061,
      "max": [
        194.66600036621094,
        257.72601318359375,
        -117.5479965209961
      ],
      "min": [
        87.17569732666016,
        126.08999633789063,
        -336.34698486328125
      ],
      "type": "VEC3"
    },
    {
      "bufferView": 1,
      "byteOffset": 5385468,
      "componentType": 5126,
      "count": 16061,
      "max": [
        0.9999862313270569,
        0.999945342540741,
        0.9999982714653015
      ],
      "min": [
        -0.9999678730964661,
        -0.9999913573265076,
        -0.9999926090240479
      ],
      "type": "VEC3"
    },
    {
      "bufferView": 0,
      "byteOffset": 3463176,
      "componentType": 5125,
      "count": 74028,
      "type": "SCALAR"
    },
    {
      "bufferView": 1,
      "byteOffset": 5578200,
      "componentType": 5126,
      "count": 8021,
      "max": [
        -51.882198333740234,
        259.5450134277344,
        -117.7239990234375
      ],
      "min": [
        -148.13099670410156,
        169.0919952392578,
        -313.625
      ],
      "type": "VEC3"
    },
    {
      "bufferView": 1,
      "byteOffset": 5674452,
      "componentType": 5126,
      "count": 8021,
      "max": [
        0.9998955726623535,
        0.9999920725822449,
        0.9999733567237854
      ],
      "min": [
        -0.9999630451202393,
        -0.9999335408210754,
        -0.9970965385437012
      ],
      "type": "VEC3"
    },
    {
      "bufferView": 0,
      "byteOffset": 3759288,
      "componentType": 5125,
      "count": 44508,
      "type": "SCALAR"
    },
    {
      "bufferView": 1,
      "byteOffset": 5770704,
      "componentType": 5126,
      "count": 5766,
      "max": [
        149.89700317382813,
        222.8350067138672,
        -124.91400146484375
      ],
      "min": [
        -103.9260025024414,
        103.23400115966797,
        -197.97999572753906
      ],
      "type": "VEC3"
    },
    {
      "bufferView": 1,
      "byteOffset": 5839896,
      "componentType": 5126,
      "count": 5766,
      "max": [
        0.9994866847991943,
        0.9990923404693604,
        0.9999758005142212
      ],
      "min": [
        -0.9987421035766602,
        -0.9994329810142517,
        -0.9994856119155884
      ],
      "type": "VEC3"
    },
    {
      "bufferView": 0,
      "byteOffset": 3937320,
      "componentType": 5125,
      "count": 28596,
      "type": "SCALAR"
    },
    {
      "bufferView": 1,
      "byteOffset": 5909088,
      "componentType": 5126,
      "count": 4521,
      "max": [
        -103.17500305175781,
        216.03799438476563,
        -117.88700103759766
      ],
      "min": [
        -151.16700744628906,
        160.40699768066406,
        -171.27999877929688
      ],
      "type": "VEC3"
    },
    {
      "bufferView": 1,
      "byteOffset": 5963340,
      "componentType": 5126,
      "count": 4521,
      "max": [
        0.9998794794082642,
        0.9992468953132629,
        0.9999900460243225
      ],
      "min": [
        -0.9997598528862,
        -0.9984493255615234,
        -0.9999762177467346
      ],
      "type": "VEC3"
    },
    {
      "bufferView": 0,
      "byteOffset": 4051704,
      "componentType": 5125,
      "count": 19140,
      "type": "SCALAR"
    },
    {
      "bufferView": 1,
      "byteOffset": 6017592,
      "componentType": 5126,
      "count": 7794,
      "max": [
        42.9921989440918,
        114.07599639892578,
        -188.85699462890625
      ],
      "min": [
        -20.14080047607422,
        44.46549987792969,
        -357.0929870605469
      ],
      "type": "VEC3"
    },
    {
      "bufferView": 1,
      "byteOffset": 6111120,
      "componentType": 5126,
      "count": 7794,
      "max": [
        0.9986100792884827,
        0.9999064207077026,
        0.999232292175293
      ],
      "min": [
        -0.9996960759162903,
        -0.9998368620872498,
        -0.9979072213172913
      ],
      "type": "VEC3"
    },
    {
      "bufferView": 0,
      "byteOffset": 4128264,
      "componentType": 5125,
      "count": 36702,
      "type": "SCALAR"
    },
    {
      "bufferView": 1,
      "byteOffset": 6204648,
      "componentType": 5126,
      "count": 10243,
      "max": [
        149.43499755859375,
        199.5919952392578,
        -681.8519897460938
      ],
      "min": [
        -142.94400024414063,
        106.4530029296875,
        -794.3619995117188
      ],
      "type": "VEC3"
    },
    {
      "bufferView": 1,
      "byteOffset": 6327564,
      "componentType": 5126,
      "count": 10243,
      "max": [
        0.9998945593833923,
        0.9999988675117493,
        0.9999988675117493
      ],
      "min": [
        -0.9997965693473816,
        -1.0,
        -1.0
      ],
      "type": "VEC3"
    },
    {
      "bufferView": 0,
      "byteOffset": 4275072,
      "componentType": 5125,
      "count": 59112,
      "type": "SCALAR"
    }
  ],
  "asset": {
    "extras": {
      "author": "Terrie (https://sketchfab.com/terrielsimmons)",
      "license": "CC-BY-NC-ND-4.0 (http://creativecommons.org/licenses/by-nc-nd/4.0/)",
      "source": "https://sketchfab.com/3d-models/gltf-export-from-3d-slicer-0c1e9aa6c108411c89c26b14b9b36da0",
      "title": "GLTF export from 3D Slicer"
    },
    "generator": "Sketchfab-16.28.0",
    "version": "2.0"
  },
  "bufferViews": [
    {
      "buffer": 0,
      "byteLength": 4511520,
      "name": "floatBufferViews",
      "target": 34963
    },
    {
      "buffer": 0,
      "byteLength": 6450480,
      "byteOffset": 4511520,
      "byteStride": 12,
      "name": "floatBufferViews",
      "target": 34962
    }
  ],
  "buffers": [
    {
      "byteLength": 10962000,
      "uri": "scene.bin"
    }
  ],
  "extensionsUsed": [
    "KHR_materials_specular"
  ],
  "materials": [
    {
      "doubleSided": true,
      "extensions": {
        "KHR_materials_specular": {
          "specularColorFactor": [
            1.0,
            1.0,
            1.0
          ],
          "specularFactor": 0.46383423123229034
        }
      },
      "name": "material_0",
      "pbrMetallicRoughness": {
        "baseColorFactor": [
          0.3,
          0.9,
          0.0,
          1.0
        ],
        "metallicFactor": 0.0,
        "roughnessFactor": 0.6384781363143202
      }
    },
    {
      "name": "material_1",
      "pbrMetallicRoughness": {
        "baseColorFactor": [
          0.850588,
          0.755294,
          0.511764,
          1.0
        ],
        "metallicFactor": 0.0
      }
    },
    {
      "name": "material_2",
      "pbrMetallicRoughness": {
        "baseColorFactor": [
          0.624706,
          0.430588,
          0.35647,
          1.0
        ],
        "metallicFactor": 0.0
      }
    },
    {
      "name": "material_3",
      "pbrMetallicRoughness": {
        "baseColorFactor": [
          0.08753953671176218,
          0.5981877993874434,
          0.8617452327390529,
          1.0
        ],
        "metallicFactor": 0.0
      }
    },
    {
      "name": "material_4",
      "pbrMetallicRoughness": {
        "baseColorFactor": [
          0.762353,
          0.35647,
          0.278824,
          1.0
        ],
        "metallicFactor": 0.0
      }
    },
    {
      "name": "material_5",
      "pbrMetallicRoughness": {
        "baseColorFactor": [
          0.22775349966908412,
          0.8803186846030284,
          0.22775349966908412,
          1.0
        ],
        "metallicFactor": 0.0
      }
    },
    {
      "name": "material_6",
      "pbrMetallicRoughness": {
        "baseColorFactor": [
          0.9,
          0.3,
          0.9,
          1.0
        ],
        "metallicFactor": 0.0
      }
    }
  ],
  "meshes": [
    {
      "name": "Object_0",
      "primitives": [
        {
          "attributes": {
            "NORMAL": 1,
            "POSITION": 0
          },
          "indices": 2,
          "material": 0,
          "mode": 4
        }
      ]
    },
    {
      "name": "Object_1",
      "primitives": [
        {
          "attributes": {
            "NORMAL": 4,
            "POSITION": 3
          },
          "indices": 5,
          "material": 0,
          "mode": 4
        }
      ]
    },
    {
      "name": "Object_2",
      "primitives": [
        {
          "attributes": {
            "NORMAL": 7,
            "POSITION": 6
          },
          "indices": 8,
          "material": 0,
          "mode": 4
        }
      ]
    },
    {
      "name": "Object_3",
      "primitives": [
        {
          "attributes": {
            "NORMAL": 10,
            "POSITION": 9
          },
          "indices": 11,
          "material": 0,
          "mode": 4
        }
      ]
    },
    {
      "name": "Object_4",
      "primitives": [
        {
          "attributes": {
            "NORMAL": 13,
            "POSITION": 12
          },
          "indices": 14,
          "material": 1,
          "mode": 4
        }
      ]
    },
    {
      "name": "Object_5",
      "primitives": [
        {
          "attributes": {
            "NORMAL": 16,
            "POSITION": 15
          },
          "indices": 17,
          "material": 2,
          "mode": 4
        }
      ]
    },
    {
      "name": "Object_6",
      "primitives": [
        {
          "attributes": {
            "NORMAL": 19,
            "POSITION": 18
          },
          "indices": 20,
          "material": 3,
          "mode": 4
        }
      ]
    },
    {
      "name": "Object_7",
      "primitives": [
        {
          "attributes": {
            "NORMAL": 22,
            "POSITION": 21
          },
          "indices": 23,
          "material": 4,
          "mode": 4
        }
      ]
    },
    {
      "name": "Object_8",
      "primitives": [
        {
          "attributes": {
            "NORMAL": 25,
            "POSITION": 24
          },
          "indices": 26,
          "material": 5,
          "mode": 4
        }
      ]
    },
    {
      "name": "Object_9",
      "primitives": [
        {
          "attributes": {
            "NORMAL": 28,
            "POSITION": 27
          },
          "indices": 29,
          "material": 6,
          "mode": 4
        }
      ]
    }
  ],
  "nodes": [
    {
      "children": [
        1
      ],
      "matrix": [
        0.0012868941994383931,
        0.0,
        0.0,
        0.0,
        0.0,
        -0.0012868918215873729,
        -2.4689519880232078e-06,
        0.0,
        0.0,
        2.4689519880232078e-06,
        -0.0012868918215873729,
        0.0,
        0.0,
        0.0,
        0.0,
        1.0
      ],
      "name": "Sketchfab_model"
    },
    {
      "children": [
        2
      ],
      "name": "root"
    },
    {
      "children": [
        3
      ],
      "matrix": [
        1.0,
        0.0,
        0.0,
        0.0,
        0.0,
        2.220446049250313e-16,
        1.0,
        0.0,
        0.0,
        -1.0,
        2.220446049250313e-16,
        0.0,
        0.0,
        0.0,
        0.0,
        1.0
      ],
      "name": "GLTF_SceneRootNode"
    },
    {
      "children": [
        4,
        9,
        11,
        13,
        15,
        17,
        19
      ],
      "matrix": [
        1.0,
        0.0,
        0.0,
        0.0,
        0.0,
        1.0,
        0.0,
        0.0,
        0.0,
        0.0,
        1.0,
        0.0,
        0.0,
        0.0,
        -1.0,
        1.0
      ],
      "name": "Camera Node_7"
    },
    {
      "children": [
        5,
        6,
        7,
        8
      ],
      "name": "_0"
    },
    {
      "mesh": 0,
      "name": "Object_5"
    },
    {
      "mesh": 1,
      "name": "Object_6"
    },
    {
      "mesh": 2,
      "name": "Object_7"
    },
    {
      "mesh": 3,
      "name": "Object_8"
    },
    {
      "children": [
        10
      ],
      "name": "_1"
    },
    {
      "mesh": 4,
      "name": "Object_10"
    },
    {
      "children": [
        12
      ],
      "name": "_2"
    },
    {
      "mesh": 5,
      "name": "Object_12"
    },
    {
      "children": [
        14
      ],
      "name": "_3"
    },
    {
      "mesh": 6,
      "name": "Object_14"
    },
    {
      "children": [
        16
      ],
      "name": "_4"
    },
    {
      "mesh": 7,
      "name": "Object_16"
    },
    {
      "children": [
        18
      ],
      "name": "_5"
    },
    {
      "mesh": 8,
      "name": "Object_18"
    },
    {
      "children": [
        20
      ],
      "name": "_6"
    },
    {
      "mesh": 9,
      "name": "Object_20"
    }
  ],
  "scene": 0,
  "scenes": [
    {
      "name": "Sketchfab_Scene",
      "nodes": [
        0
      ]
    }
  ]
}
